<svg width="32" height="32" viewBox="0 0 512 512" fill="none" xmlns="http://www.w3.org/2000/svg">
  <circle cx="256" cy="256" r="248" fill="#E0E5EC" stroke="#2B85C6" stroke-width="8"/>
  <path d="M256 150C256 150 220 165 200 190C180 215 175 240 175 265C175 290 185 315 200 335C215 355 250 370 256 370" stroke="#2B85C6" stroke-width="24" stroke-linecap="round"/>
  <path d="M256 150C256 150 292 165 312 190C332 215 337 240 337 265C337 290 327 315 312 335C297 355 262 370 256 370" stroke="#101820" stroke-width="24" stroke-linecap="round"/>
  <circle cx="360" cy="210" r="8" fill="#3293E9"/>
  <circle cx="152" cy="210" r="8" fill="#3293E9"/>
  <circle cx="256" cy="150" r="8" fill="#3293E9"/>
  <circle cx="256" cy="370" r="8" fill="#3293E9"/>
</svg>